<svg t="1627044120513" class="icon" viewBox="0 0 1024 1024" version="1.1" xmlns="http://www.w3.org/2000/svg" p-id="2832" width="200" height="200"><path d="M639.2832 947.2 947.2 947.2c28.2624 0 51.2-22.9376 51.2-51.2L998.4 128c0-28.2624-22.9376-51.2-51.2-51.2L575.8464 76.8 499.2 153.4464 422.5536 76.8 51.2 76.8C22.9376 76.8 0 99.7376 0 128l0 768c0 28.2624 22.9376 51.2 51.2 51.2l307.9168 0c29.5936 46.1568 81.2032 76.8 140.0832 76.8S609.6896 993.3568 639.2832 947.2zM499.2 947.2c-45.1072 0-82.048-33.4592-88.32-76.8L76.8 870.4 76.8 153.6l319.7696 0L460.8 217.8304 460.8 627.2c0 21.1968 17.1776 38.4 38.4 38.4 21.1968 0 38.4-17.2032 38.4-38.4L537.6 217.8304 601.856 153.6 921.6 153.6l0 716.8L587.4944 870.4C581.248 913.7408 544.3328 947.2 499.2 947.2z" p-id="2833" fill="#8a8a8a"></path></svg>