<svg t="1628751194981" class="icon" viewBox="0 0 1024 1024" version="1.1" xmlns="http://www.w3.org/2000/svg" p-id="4711" width="200" height="200"><path d="M727.505597 555.3315a39.107852 39.107852 0 0 1-28.555843-12.884259L267.938561 73.864067A46.730328 46.730328 0 0 1 268.934033 12.855818a38.11238 38.11238 0 0 1 56.116213-1.052357l431.011193 468.554731c7.622476 8.219759 11.917229 19.397495 11.917229 31.058745 0 11.66125-4.294753 22.838986-11.945671 31.030304a39.107852 39.107852 0 0 1-28.5274 12.884259zM296.494403 1023.914674a39.107852 39.107852 0 0 1-28.555842-12.88426A45.621087 45.621087 0 0 1 256.021332 979.971669c0-11.66125 4.294753-22.838986 11.945671-31.030303l430.982751-468.583174a38.11238 38.11238 0 0 1 56.116213 1.080799c15.35872 16.72394 15.813793 43.715468 0.995472 61.00825L325.050246 1011.030414a39.107852 39.107852 0 0 1-28.555843 12.88426z" p-id="4712" fill="#686868"></path></svg>