<svg t="1628675615288" class="icon" viewBox="0 0 1024 1024" version="1.1" xmlns="http://www.w3.org/2000/svg" p-id="3047" width="200" height="200"><path d="M540.032 70.976c-245.952 0-446.016 200.064-446.016 446.016s200.064 446.016 446.016 446.016 446.016-200.064 446.016-446.016-200.064-446.016-446.016-446.016z m0 828.032c-210.624 0-382.016-171.392-382.016-382.016s171.392-382.016 382.016-382.016 382.016 171.392 382.016 382.016-171.392 382.016-382.016 382.016z" p-id="3048" fill="#ffffff"></path><path d="M417.152 643.84c0 35.2 24.96 49.6 55.424 32l219.584-126.784c30.528-17.6 30.528-46.4 0-64L472.576 358.208c-30.528-17.6-55.424-3.2-55.424 32v253.632z" p-id="3049" fill="#ffffff"></path></svg>