<svg t="1628675666094" class="icon" viewBox="0 0 1024 1024" version="1.1" xmlns="http://www.w3.org/2000/svg" p-id="3267" width="200" height="200"><path d="M913.805399 285.563717a314.726678 314.726678 0 0 0-290.199687-192.35513H410.275828a314.734204 314.734204 0 0 0-314.959982 314.959982v213.344936a314.734204 314.734204 0 0 0 314.959982 314.959982h213.33741a314.734204 314.734204 0 0 0 314.959982-314.959982V408.176095a313.025819 313.025819 0 0 0-24.767821-122.612378z m-50.491434 335.942262c0 132.170303-107.530423 239.700727-239.700727 239.700727H410.275828c-132.170303 0-239.700727-107.530423-239.700727-239.700727V408.176095c0-132.170303 107.530423-239.700727 239.700727-239.700727h213.33741c132.170303 0 239.700727 107.530423 239.700727 239.700727z" fill="#ffffff" p-id="3268"></path><path d="M413.082998 356.796602a37.629627 37.629627 0 0 0-37.629627 37.629627v240.829616a37.629627 37.629627 0 1 0 75.259255 0v-240.829616a37.629627 37.629627 0 0 0-37.629628-37.629627zM620.798542 356.796602a37.629627 37.629627 0 0 0-37.629628 37.629627v240.829616a37.629627 37.629627 0 1 0 75.259255 0v-240.829616a37.629627 37.629627 0 0 0-37.629627-37.629627z" fill="#ffffff" p-id="3269"></path></svg>