<svg t="1628174596793" class="icon" viewBox="0 0 1024 1024" version="1.1" xmlns="http://www.w3.org/2000/svg" p-id="2734" width="200" height="200"><path d="M958.22848 227.28704l-47.28832 46.96576-157.48096-156.50816 47.29344-46.8992c17.35168-17.29024 44.70272-18.19648 60.96384-2.00192l98.44736 97.80736c16.32768 16.18432 15.42144 43.35104-1.93536 60.63616zM729.5232 141.61408L383.0784 485.86752l157.47584 156.51328 346.45504-344.25344-157.48608-156.51328zM470.24128 485.87264l259.28192-257.64352 70.3232 69.89312-259.28704 257.6384-70.31808-69.888zM518.62528 664.192l-220.44672 62.57664 62.96576-219.09504 157.48096 156.5184z" p-id="2735"></path><path d="M195.62496 978.60096c-80.00512 0-145.09568-65.09056-145.09568-145.1008V208.91136c0-80.00512 65.09056-145.09568 145.09568-145.09568h473.17504l-71.66976 71.66976H226.9184c-57.74848 0-104.7296 46.9504-104.7296 104.66304v562.11968c0 57.70752 46.95552 104.66304 104.66816 104.66304H789.0944c57.71776 0 104.67328-46.95552 104.67328-104.66816V432.06656l71.66464-71.62368v473.05728c0 80.01024-65.09056 145.1008-145.1008 145.1008H195.62496z" p-id="2736"></path></svg>