<svg t="1628174558555" class="icon" viewBox="0 0 1024 1024" version="1.1" xmlns="http://www.w3.org/2000/svg" p-id="1840" width="200" height="200"><path d="M440.7 191.1h146.5v42.7H440.7z" p-id="1841"></path><path d="M752.4 191.1l-0.8 42.7c72.2 1.3 131 61.2 131 133.5v40.1H145.4v-40.1c0-72.4 58.8-132.3 131-133.5l-0.8-42.7c-95.4 1.7-172.9 80.7-172.9 176.3V717c0 97.2 79.1 176.3 176.3 176.3h470.1c97.2 0 176.3-79.1 176.3-176.3V367.4c-0.1-95.5-77.7-174.6-173-176.3zM882.6 717c0 73.6-59.9 133.5-133.5 133.5H278.9c-73.6 0-133.5-59.9-133.5-133.5V450.2h737.2V717z" p-id="1842"></path><path d="M357.6 346c35.6 0 64.6-29 64.6-64.6v-83.2c0.4-17.2-6.1-33.4-18.1-45.7-12-12.3-28.8-19.3-46-19.3-35.6 0-64.6 29-64.6 64.6v83.6c0 35.6 28.8 64.6 64.1 64.6z m-21.4-148.3c0-12.1 9.8-21.9 21.9-21.9 5.9 0 11.4 2.3 15.5 6.5 3.9 4 6.1 9.4 5.9 15.4v83.6c0 12.1-9.8 21.9-21.9 21.9-11.6 0-21.4-10-21.4-21.9v-83.6zM669.9 346c35.6 0 64.6-29 64.6-64.6v-84c-0.7-36-29.1-64.2-64.6-64.2-35.6 0-64.6 29-64.6 64.6v83.6c0 35.6 28.9 64.6 64.6 64.6zM648 197.7c0-12.1 9.8-21.9 21.9-21.9 12 0 21.7 9.8 21.9 21.9v83.6c0 12.1-9.8 21.9-21.9 21.9-12.1 0-21.9-9.8-21.9-21.9v-83.6zM253.4 526.5h118v42.7h-118zM455 526.5h118v42.7H455zM656.6 526.5h118v42.7h-118zM253.4 613.5h118v42.7h-118zM455 613.5h118v42.7H455zM656.6 613.5h118v42.7h-118zM253.4 701.1h118v42.7h-118zM455 701.1h118v42.7H455zM656.6 701.1h118v42.7h-118z" p-id="1843"></path></svg>